<svg width="512" height="512" viewBox="0 0 512 512" fill="none" xmlns="http://www.w3.org/2000/svg">
<path fill-rule="evenodd" clip-rule="evenodd" d="M425 512H87C80 512 74 507 74 501V103C74 96 80 91 87 91H151V129C151 142 163 154 177 154H335C349 154 361 143 361 129V91H425C432 91 438 96 438 103V501C438 507 432 512 425 512ZM396 197H249C244 197 241 194 241 189C241 185 244 182 249 182H396C400 182 403 185 403 189C403 194 400 197 396 197ZM396 229H249C244 229 241 226 241 221C241 217 244 214 249 214H396C400 214 403 217 403 221C403 226 400 229 396 229ZM396 261H249C244 261 241 258 241 254C241 250 244 246 249 246H396C400 246 403 250 403 254C403 258 400 261 396 261ZM396 293H249C244 293 241 290 241 286C241 282 244 278 249 278H396C400 278 403 282 403 286C403 290 400 293 396 293ZM206 293H120C114 293 109 288 109 282V194C109 187 114 182 120 182H206C212 182 218 187 218 194V282C217 288 212 293 206 293ZM123 279H203V197H123V279ZM153 262C151 262 149 261 148 260L135 247C132 244 132 239 135 236C138 234 142 234 145 236L153 244L181 216C184 213 189 213 192 216C195 219 195 224 192 226L159 260C156 261 154 262 153 262ZM396 359H249C244 359 241 356 241 352C241 348 244 344 249 344H396C400 344 403 348 403 352C403 356 400 359 396 359ZM396 391H249C244 391 241 388 241 384C241 380 244 376 249 376H396C400 376 403 380 403 384C403 388 400 391 396 391ZM396 423H249C244 423 241 420 241 416C241 412 244 408 249 408H396C400 408 403 412 403 416C403 420 400 423 396 423ZM396 456H249C244 456 241 453 241 448C241 444 244 441 249 441H396C400 441 403 444 403 448C403 453 400 456 396 456ZM206 456H120C114 456 109 451 109 444V356C109 350 114 344 120 344H206C212 344 218 349 218 356V444C217 451 212 456 206 456ZM123 441H203V359H123V441ZM153 424C151 424 149 423 148 422L135 409C132 406 132 401 135 398C138 396 142 396 145 398L153 406L181 378C184 375 189 375 192 378C195 381 195 386 192 388L159 422C156 423 154 424 153 424Z" fill="#757575"/>
<path fill-rule="evenodd" clip-rule="evenodd" d="M335 140H177C171 140 165 135 165 129V68C165 61 170 56 177 56H192C196 25 223 0 256 0C289 0 316 25 320 56H335C341 56 347 62 347 68V129C346 135 341 140 335 140ZM256 106C236 106 221 90 221 70C221 51 236 34 256 34C276 34 292 51 292 70C292 90 276 106 256 106ZM256 49C244 49 235 59 235 70C235 82 245 91 256 91C268 91 277 82 277 70C277 59 268 49 256 49Z" fill="#757575"/>
</svg>
